<mxfile host="app.diagrams.net" agent="Mozilla/5.0 (Windows NT 10.0; Win64; x64) AppleWebKit/537.36 (KHTML, like Gecko) Chrome/134.0.0.0 YaBrowser/25.4.0.0 Safari/537.36" version="27.0.2">
  <diagram name="Страница — 1" id="BlmAZIHzfZ_XEpePlAZ4">
    <mxGraphModel dx="1225" dy="1901" grid="1" gridSize="10" guides="1" tooltips="1" connect="1" arrows="1" fold="1" page="1" pageScale="1" pageWidth="827" pageHeight="1169" math="0" shadow="0">
      <root>
        <mxCell id="0" />
        <mxCell id="1" parent="0" />
        <mxCell id="LPGfRJEELo__UDh2Sruj-1" value="" style="rounded=0;whiteSpace=wrap;html=1;" parent="1" vertex="1">
          <mxGeometry x="180" y="-310" width="1080" height="1070" as="geometry" />
        </mxCell>
        <mxCell id="LPGfRJEELo__UDh2Sruj-6" style="edgeStyle=orthogonalEdgeStyle;rounded=0;orthogonalLoop=1;jettySize=auto;html=1;" parent="1" source="LPGfRJEELo__UDh2Sruj-2" target="LPGfRJEELo__UDh2Sruj-5" edge="1">
          <mxGeometry relative="1" as="geometry" />
        </mxCell>
        <mxCell id="LPGfRJEELo__UDh2Sruj-32" style="edgeStyle=orthogonalEdgeStyle;rounded=0;orthogonalLoop=1;jettySize=auto;html=1;entryX=0;entryY=0.5;entryDx=0;entryDy=0;" parent="1" source="LPGfRJEELo__UDh2Sruj-2" target="LPGfRJEELo__UDh2Sruj-31" edge="1">
          <mxGeometry relative="1" as="geometry" />
        </mxCell>
        <mxCell id="LPGfRJEELo__UDh2Sruj-44" style="edgeStyle=orthogonalEdgeStyle;rounded=0;orthogonalLoop=1;jettySize=auto;html=1;entryX=0;entryY=0.5;entryDx=0;entryDy=0;" parent="1" source="LPGfRJEELo__UDh2Sruj-2" target="LPGfRJEELo__UDh2Sruj-43" edge="1">
          <mxGeometry relative="1" as="geometry" />
        </mxCell>
        <mxCell id="LPGfRJEELo__UDh2Sruj-52" style="edgeStyle=orthogonalEdgeStyle;rounded=0;orthogonalLoop=1;jettySize=auto;html=1;entryX=0;entryY=0.5;entryDx=0;entryDy=0;" parent="1" source="LPGfRJEELo__UDh2Sruj-2" target="LPGfRJEELo__UDh2Sruj-51" edge="1">
          <mxGeometry relative="1" as="geometry">
            <Array as="points">
              <mxPoint x="180" y="220" />
              <mxPoint x="180" y="60" />
            </Array>
          </mxGeometry>
        </mxCell>
        <mxCell id="LPGfRJEELo__UDh2Sruj-56" style="edgeStyle=orthogonalEdgeStyle;rounded=0;orthogonalLoop=1;jettySize=auto;html=1;entryX=0;entryY=0.5;entryDx=0;entryDy=0;" parent="1" source="LPGfRJEELo__UDh2Sruj-2" target="LPGfRJEELo__UDh2Sruj-55" edge="1">
          <mxGeometry relative="1" as="geometry">
            <Array as="points">
              <mxPoint x="190" y="220" />
              <mxPoint x="190" y="360" />
            </Array>
          </mxGeometry>
        </mxCell>
        <mxCell id="LPGfRJEELo__UDh2Sruj-61" style="edgeStyle=orthogonalEdgeStyle;rounded=0;orthogonalLoop=1;jettySize=auto;html=1;entryX=0;entryY=0.5;entryDx=0;entryDy=0;" parent="1" source="LPGfRJEELo__UDh2Sruj-2" target="LPGfRJEELo__UDh2Sruj-60" edge="1">
          <mxGeometry relative="1" as="geometry">
            <Array as="points">
              <mxPoint x="190" y="220" />
              <mxPoint x="190" y="500" />
            </Array>
          </mxGeometry>
        </mxCell>
        <mxCell id="LPGfRJEELo__UDh2Sruj-2" value="Ученик" style="shape=umlActor;verticalLabelPosition=bottom;verticalAlign=top;html=1;outlineConnect=0;" parent="1" vertex="1">
          <mxGeometry x="90" y="190" width="30" height="60" as="geometry" />
        </mxCell>
        <mxCell id="LPGfRJEELo__UDh2Sruj-10" style="edgeStyle=orthogonalEdgeStyle;rounded=0;orthogonalLoop=1;jettySize=auto;html=1;exitX=0.5;exitY=0;exitDx=0;exitDy=0;entryX=0;entryY=0.5;entryDx=0;entryDy=0;dashed=1;" parent="1" source="LPGfRJEELo__UDh2Sruj-5" target="LPGfRJEELo__UDh2Sruj-7" edge="1">
          <mxGeometry relative="1" as="geometry" />
        </mxCell>
        <mxCell id="LPGfRJEELo__UDh2Sruj-15" style="edgeStyle=orthogonalEdgeStyle;rounded=0;orthogonalLoop=1;jettySize=auto;html=1;exitX=0.5;exitY=1;exitDx=0;exitDy=0;entryX=0;entryY=0.5;entryDx=0;entryDy=0;dashed=1;" parent="1" source="LPGfRJEELo__UDh2Sruj-5" target="LPGfRJEELo__UDh2Sruj-14" edge="1">
          <mxGeometry relative="1" as="geometry" />
        </mxCell>
        <mxCell id="LPGfRJEELo__UDh2Sruj-5" value="Регистрация" style="ellipse;whiteSpace=wrap;html=1;" parent="1" vertex="1">
          <mxGeometry x="260" y="180" width="120" height="80" as="geometry" />
        </mxCell>
        <mxCell id="LPGfRJEELo__UDh2Sruj-7" value="Указать пароль" style="ellipse;whiteSpace=wrap;html=1;" parent="1" vertex="1">
          <mxGeometry x="440" y="80" width="120" height="80" as="geometry" />
        </mxCell>
        <mxCell id="LPGfRJEELo__UDh2Sruj-9" value="include" style="text;html=1;align=center;verticalAlign=middle;whiteSpace=wrap;rounded=0;" parent="1" vertex="1">
          <mxGeometry x="330" y="90" width="60" height="30" as="geometry" />
        </mxCell>
        <mxCell id="LPGfRJEELo__UDh2Sruj-46" style="edgeStyle=orthogonalEdgeStyle;rounded=0;orthogonalLoop=1;jettySize=auto;html=1;exitX=0;exitY=0.5;exitDx=0;exitDy=0;entryX=0;entryY=1;entryDx=0;entryDy=0;dashed=1;" parent="1" source="LPGfRJEELo__UDh2Sruj-12" target="LPGfRJEELo__UDh2Sruj-16" edge="1">
          <mxGeometry relative="1" as="geometry">
            <Array as="points">
              <mxPoint x="400" y="220" />
              <mxPoint x="400" y="220" />
            </Array>
          </mxGeometry>
        </mxCell>
        <mxCell id="LPGfRJEELo__UDh2Sruj-12" value="Привязать электронную почту" style="ellipse;whiteSpace=wrap;html=1;" parent="1" vertex="1">
          <mxGeometry x="440" y="180" width="120" height="80" as="geometry" />
        </mxCell>
        <mxCell id="LPGfRJEELo__UDh2Sruj-14" value="Привязать номер телефона" style="ellipse;whiteSpace=wrap;html=1;" parent="1" vertex="1">
          <mxGeometry x="440" y="280" width="120" height="80" as="geometry" />
        </mxCell>
        <mxCell id="LPGfRJEELo__UDh2Sruj-16" value="extend" style="text;html=1;align=center;verticalAlign=middle;whiteSpace=wrap;rounded=0;" parent="1" vertex="1">
          <mxGeometry x="380" y="190" width="60" height="30" as="geometry" />
        </mxCell>
        <mxCell id="LPGfRJEELo__UDh2Sruj-18" value="include" style="text;html=1;align=center;verticalAlign=middle;whiteSpace=wrap;rounded=0;" parent="1" vertex="1">
          <mxGeometry x="350" y="280" width="60" height="30" as="geometry" />
        </mxCell>
        <mxCell id="LPGfRJEELo__UDh2Sruj-49" style="edgeStyle=orthogonalEdgeStyle;rounded=0;orthogonalLoop=1;jettySize=auto;html=1;entryX=0;entryY=0.5;entryDx=0;entryDy=0;" parent="1" target="LPGfRJEELo__UDh2Sruj-21" edge="1">
          <mxGeometry relative="1" as="geometry">
            <mxPoint x="150" y="680" as="sourcePoint" />
          </mxGeometry>
        </mxCell>
        <mxCell id="LPGfRJEELo__UDh2Sruj-50" style="edgeStyle=orthogonalEdgeStyle;rounded=0;orthogonalLoop=1;jettySize=auto;html=1;" parent="1" target="LPGfRJEELo__UDh2Sruj-22" edge="1">
          <mxGeometry relative="1" as="geometry">
            <mxPoint x="150" y="680" as="sourcePoint" />
          </mxGeometry>
        </mxCell>
        <mxCell id="LPGfRJEELo__UDh2Sruj-21" value="Создание курса" style="ellipse;whiteSpace=wrap;html=1;" parent="1" vertex="1">
          <mxGeometry x="260" y="520" width="120" height="80" as="geometry" />
        </mxCell>
        <mxCell id="LPGfRJEELo__UDh2Sruj-22" value="Проверка состояния подписки" style="ellipse;whiteSpace=wrap;html=1;" parent="1" vertex="1">
          <mxGeometry x="260" y="660" width="120" height="80" as="geometry" />
        </mxCell>
        <mxCell id="LPGfRJEELo__UDh2Sruj-39" style="edgeStyle=orthogonalEdgeStyle;rounded=0;orthogonalLoop=1;jettySize=auto;html=1;exitX=0.5;exitY=1;exitDx=0;exitDy=0;entryX=0;entryY=0.5;entryDx=0;entryDy=0;dashed=1;dashPattern=12 12;" parent="1" source="LPGfRJEELo__UDh2Sruj-31" target="LPGfRJEELo__UDh2Sruj-35" edge="1">
          <mxGeometry relative="1" as="geometry" />
        </mxCell>
        <mxCell id="LPGfRJEELo__UDh2Sruj-40" style="edgeStyle=orthogonalEdgeStyle;rounded=0;orthogonalLoop=1;jettySize=auto;html=1;exitX=1;exitY=0.5;exitDx=0;exitDy=0;dashed=1;dashPattern=12 12;" parent="1" source="LPGfRJEELo__UDh2Sruj-31" target="LPGfRJEELo__UDh2Sruj-34" edge="1">
          <mxGeometry relative="1" as="geometry" />
        </mxCell>
        <mxCell id="LPGfRJEELo__UDh2Sruj-31" value="Войти в систему" style="ellipse;whiteSpace=wrap;html=1;" parent="1" vertex="1">
          <mxGeometry x="260" y="-160" width="120" height="80" as="geometry" />
        </mxCell>
        <mxCell id="LPGfRJEELo__UDh2Sruj-36" style="edgeStyle=orthogonalEdgeStyle;rounded=0;orthogonalLoop=1;jettySize=auto;html=1;exitX=0;exitY=0.5;exitDx=0;exitDy=0;entryX=0.5;entryY=0;entryDx=0;entryDy=0;dashed=1;dashPattern=12 12;" parent="1" source="LPGfRJEELo__UDh2Sruj-33" target="LPGfRJEELo__UDh2Sruj-31" edge="1">
          <mxGeometry relative="1" as="geometry" />
        </mxCell>
        <mxCell id="LPGfRJEELo__UDh2Sruj-33" value="Поменять пароль" style="ellipse;whiteSpace=wrap;html=1;" parent="1" vertex="1">
          <mxGeometry x="440" y="-280" width="120" height="80" as="geometry" />
        </mxCell>
        <mxCell id="LPGfRJEELo__UDh2Sruj-34" value="Ввести номер телефона или электронную почту" style="ellipse;whiteSpace=wrap;html=1;" parent="1" vertex="1">
          <mxGeometry x="440" y="-160" width="120" height="80" as="geometry" />
        </mxCell>
        <mxCell id="LPGfRJEELo__UDh2Sruj-35" value="Ввести пароль" style="ellipse;whiteSpace=wrap;html=1;" parent="1" vertex="1">
          <mxGeometry x="440" y="-50" width="120" height="80" as="geometry" />
        </mxCell>
        <mxCell id="LPGfRJEELo__UDh2Sruj-37" value="extend" style="text;html=1;align=center;verticalAlign=middle;whiteSpace=wrap;rounded=0;" parent="1" vertex="1">
          <mxGeometry x="330" y="-270" width="60" height="30" as="geometry" />
        </mxCell>
        <mxCell id="LPGfRJEELo__UDh2Sruj-41" value="include" style="text;html=1;align=center;verticalAlign=middle;whiteSpace=wrap;rounded=0;" parent="1" vertex="1">
          <mxGeometry x="370" y="-150" width="60" height="30" as="geometry" />
        </mxCell>
        <mxCell id="LPGfRJEELo__UDh2Sruj-42" value="include" style="text;html=1;align=center;verticalAlign=middle;whiteSpace=wrap;rounded=0;" parent="1" vertex="1">
          <mxGeometry x="354" y="-40" width="60" height="30" as="geometry" />
        </mxCell>
        <mxCell id="LPGfRJEELo__UDh2Sruj-47" style="edgeStyle=orthogonalEdgeStyle;rounded=0;orthogonalLoop=1;jettySize=auto;html=1;exitX=1;exitY=0.5;exitDx=0;exitDy=0;entryX=0;entryY=0.5;entryDx=0;entryDy=0;dashed=1;" parent="1" source="LPGfRJEELo__UDh2Sruj-43" target="LPGfRJEELo__UDh2Sruj-45" edge="1">
          <mxGeometry relative="1" as="geometry" />
        </mxCell>
        <mxCell id="LPGfRJEELo__UDh2Sruj-43" value="Поиск литературы" style="ellipse;whiteSpace=wrap;html=1;" parent="1" vertex="1">
          <mxGeometry x="260" y="380" width="120" height="80" as="geometry" />
        </mxCell>
        <mxCell id="LPGfRJEELo__UDh2Sruj-45" value="Указать автора либо название книги" style="ellipse;whiteSpace=wrap;html=1;" parent="1" vertex="1">
          <mxGeometry x="440" y="380" width="120" height="80" as="geometry" />
        </mxCell>
        <mxCell id="LPGfRJEELo__UDh2Sruj-48" value="include" style="text;html=1;align=center;verticalAlign=middle;whiteSpace=wrap;rounded=0;" parent="1" vertex="1">
          <mxGeometry x="380" y="400" width="60" height="30" as="geometry" />
        </mxCell>
        <mxCell id="LPGfRJEELo__UDh2Sruj-51" value="Чтение онлайн" style="ellipse;whiteSpace=wrap;html=1;" parent="1" vertex="1">
          <mxGeometry x="610" y="20" width="120" height="80" as="geometry" />
        </mxCell>
        <mxCell id="LPGfRJEELo__UDh2Sruj-58" style="edgeStyle=orthogonalEdgeStyle;rounded=0;orthogonalLoop=1;jettySize=auto;html=1;exitX=1;exitY=0.5;exitDx=0;exitDy=0;entryX=0;entryY=0.5;entryDx=0;entryDy=0;dashed=1;" parent="1" source="LPGfRJEELo__UDh2Sruj-55" target="LPGfRJEELo__UDh2Sruj-57" edge="1">
          <mxGeometry relative="1" as="geometry" />
        </mxCell>
        <mxCell id="LPGfRJEELo__UDh2Sruj-55" value="Скачать книгу" style="ellipse;whiteSpace=wrap;html=1;" parent="1" vertex="1">
          <mxGeometry x="610" y="320" width="120" height="80" as="geometry" />
        </mxCell>
        <mxCell id="LPGfRJEELo__UDh2Sruj-57" value="Выбрать формат" style="ellipse;whiteSpace=wrap;html=1;" parent="1" vertex="1">
          <mxGeometry x="790" y="320" width="120" height="80" as="geometry" />
        </mxCell>
        <mxCell id="LPGfRJEELo__UDh2Sruj-59" value="include" style="text;html=1;align=center;verticalAlign=middle;whiteSpace=wrap;rounded=0;" parent="1" vertex="1">
          <mxGeometry x="730" y="330" width="60" height="30" as="geometry" />
        </mxCell>
        <mxCell id="LPGfRJEELo__UDh2Sruj-60" value="Оставить отзыв" style="ellipse;whiteSpace=wrap;html=1;" parent="1" vertex="1">
          <mxGeometry x="610" y="460" width="120" height="80" as="geometry" />
        </mxCell>
        <mxCell id="LPGfRJEELo__UDh2Sruj-62" value="Онлайн библиотека" style="text;html=1;align=center;verticalAlign=middle;whiteSpace=wrap;rounded=0;" parent="1" vertex="1">
          <mxGeometry x="820" y="-300" width="60" height="30" as="geometry" />
        </mxCell>
        <mxCell id="LPGfRJEELo__UDh2Sruj-66" style="edgeStyle=orthogonalEdgeStyle;rounded=0;orthogonalLoop=1;jettySize=auto;html=1;entryX=1;entryY=0.5;entryDx=0;entryDy=0;" parent="1" source="LPGfRJEELo__UDh2Sruj-63" target="LPGfRJEELo__UDh2Sruj-64" edge="1">
          <mxGeometry relative="1" as="geometry" />
        </mxCell>
        <mxCell id="LPGfRJEELo__UDh2Sruj-67" style="edgeStyle=orthogonalEdgeStyle;rounded=0;orthogonalLoop=1;jettySize=auto;html=1;entryX=1;entryY=0.5;entryDx=0;entryDy=0;" parent="1" source="LPGfRJEELo__UDh2Sruj-63" target="LPGfRJEELo__UDh2Sruj-65" edge="1">
          <mxGeometry relative="1" as="geometry" />
        </mxCell>
        <mxCell id="LPGfRJEELo__UDh2Sruj-63" value="Администратор" style="shape=umlActor;verticalLabelPosition=bottom;verticalAlign=top;html=1;outlineConnect=0;" parent="1" vertex="1">
          <mxGeometry x="1300" y="230" width="30" height="60" as="geometry" />
        </mxCell>
        <mxCell id="LPGfRJEELo__UDh2Sruj-64" value="Загрузить книгу" style="ellipse;whiteSpace=wrap;html=1;" parent="1" vertex="1">
          <mxGeometry x="1010" y="180" width="120" height="80" as="geometry" />
        </mxCell>
        <mxCell id="LPGfRJEELo__UDh2Sruj-65" value="Модерация" style="ellipse;whiteSpace=wrap;html=1;" parent="1" vertex="1">
          <mxGeometry x="1010" y="305" width="120" height="80" as="geometry" />
        </mxCell>
        <mxCell id="LPGfRJEELo__UDh2Sruj-71" style="edgeStyle=orthogonalEdgeStyle;rounded=0;orthogonalLoop=1;jettySize=auto;html=1;exitX=1;exitY=0.5;exitDx=0;exitDy=0;entryX=0.5;entryY=1;entryDx=0;entryDy=0;dashed=1;" parent="1" source="LPGfRJEELo__UDh2Sruj-68" target="LPGfRJEELo__UDh2Sruj-65" edge="1">
          <mxGeometry relative="1" as="geometry" />
        </mxCell>
        <mxCell id="LPGfRJEELo__UDh2Sruj-68" value="Забанить пользователя" style="ellipse;whiteSpace=wrap;html=1;" parent="1" vertex="1">
          <mxGeometry x="880" y="400" width="120" height="80" as="geometry" />
        </mxCell>
        <mxCell id="LPGfRJEELo__UDh2Sruj-70" style="edgeStyle=orthogonalEdgeStyle;rounded=0;orthogonalLoop=1;jettySize=auto;html=1;entryX=0.5;entryY=0;entryDx=0;entryDy=0;dashed=1;" parent="1" source="LPGfRJEELo__UDh2Sruj-69" target="LPGfRJEELo__UDh2Sruj-65" edge="1">
          <mxGeometry relative="1" as="geometry" />
        </mxCell>
        <mxCell id="LPGfRJEELo__UDh2Sruj-69" value="Удалить отзыв" style="ellipse;whiteSpace=wrap;html=1;" parent="1" vertex="1">
          <mxGeometry x="870" y="230" width="120" height="80" as="geometry" />
        </mxCell>
        <mxCell id="LPGfRJEELo__UDh2Sruj-72" value="extend" style="text;html=1;align=center;verticalAlign=middle;whiteSpace=wrap;rounded=0;" parent="1" vertex="1">
          <mxGeometry x="1000" y="276" width="60" height="30" as="geometry" />
        </mxCell>
        <mxCell id="LPGfRJEELo__UDh2Sruj-73" value="extend" style="text;html=1;align=center;verticalAlign=middle;whiteSpace=wrap;rounded=0;" parent="1" vertex="1">
          <mxGeometry x="1000" y="405" width="60" height="30" as="geometry" />
        </mxCell>
        <mxCell id="WCQUdWE-LSGFsZZDevHp-1" value="Преподаватель" style="shape=umlActor;verticalLabelPosition=bottom;verticalAlign=top;html=1;outlineConnect=0;" vertex="1" parent="1">
          <mxGeometry x="110" y="650" width="30" height="60" as="geometry" />
        </mxCell>
      </root>
    </mxGraphModel>
  </diagram>
</mxfile>
